HIERARCHY
ROOT Shoulder
{
	OFFSET 0.0 0.0 0.0
	CHANNELS 6 Xposition Yposition Zposition Zrotation Xrotation Yrotation
	JOINT Elbow
	{
		OFFSET 10.0 0.0 0.0
		CHANNELS 3 Zrotation Xrotation Yrotation
		JOINT Wrist
		{
			OFFSET 10.0 0.0 0.0
			CHANNELS 3 Zrotation Xrotation Yrotation
			End Site
			{
				OFFSET 5.0 0.0 0.0
			}
		}
	}
}
MOTION
Frames: 3
Frame Time: 0.0333333
0 0 0 0 0 0 0 0 0 0 0 0
0 0 0 90 0 0 90 0 0 0 0 0
1 2 3 90 0 90 0 0 0 0 0 0
